<?xml version="1.0" encoding="utf-8"?>
<!-- Generator: Adobe Illustrator 23.0.0, SVG Export Plug-In . SVG Version: 6.00 Build 0)  -->
<svg version="1.1" id="katman_1" xmlns="http://www.w3.org/2000/svg" xmlns:xlink="http://www.w3.org/1999/xlink" x="0px" y="0px"
	 viewBox="0 0 135.2 88" style="enable-background:new 0 0 135.2 88;" xml:space="preserve">
<style type="text/css">
	.st0{clip-path:url(#SVGID_1_);fill:url(#SVGID_2_);}
	.st1{fill:#000002;}
</style>
<g>
	<defs>
		<path id="SVGID_4_" d="M69.3,62.6c-0.9,0-1.8-0.3-2.2-1.2c-0.4-0.9-0.1-1.7,0.5-2.5c1.3-1.7,3-2.8,4.9-3.8c0.9-0.5,1.9-1,3-1.6
			c0.4,2,0.2,3.8-0.6,5.5c-1,2.2-3,3.6-5.2,3.6C69.5,62.6,69.4,62.6,69.3,62.6 M92.5,45.9c0.1-4.7,0.9-9.2,4.7-12.5
			c0.8-0.7,1.8-1.1,2.8-1.3c1.8-0.4,3,0.9,2.7,2.7c-0.2,0.9-0.4,1.8-0.9,2.5c-1.8,2.8-4,5.4-6.6,7.4c-0.7,0.6-1.6,1-2.4,1.5
			C92.7,46.1,92.6,46,92.5,45.9z M38.3,4.5c-3.2,0.1-5.9,1.5-8.1,3.7c-3.1,3-3.6,6.7-2.5,10.6c0.5,1.6,1.7,2.9,2.5,4.4
			c0.2,0.4,0.5,0.7,0.9,1.1c-0.4,0.2-0.7,0.3-1,0.5c-4.8,2.2-8.9,5.3-11.9,9.6c-2.1,3.1-3.5,6.4-3.2,10.2c0.3,3.2,2.5,6.1,5.4,7
			c2.7,0.9,5.4,0.3,7.9-0.5c5.5-1.9,10.2-5.2,14.2-9.5c0.2-0.2,0.2-0.5,0.3-0.7l0.3,0.3c0,0.9-0.1,1.9,0,2.8c0.1,1,0.4,2,0.7,3
			c0.3,1.3,1.4,1.1,2.4,1.1c0.9,0,1.3-0.6,1.6-1.3c1.8-4.5,4.7-8.2,8.3-11.4c0.5-0.4,1-0.7,1.8-1.2c-0.1,0.5-0.1,0.8-0.2,1.1
			c-0.3,1.1-0.6,2.2-0.9,3.3c-0.5,1.9-1,3.8-0.8,5.8c0.2,3.4,2.5,4.9,5.6,3.4c3.1-1.4,5.6-3.7,7.6-6.3c1.7-2.2,3.1-4.6,4.7-7
			c0.7-1.1,1.5-2,2.6-2.6c1.7-0.9,3.5-0.2,4,1.7c0.2,1,0.3,2.1,0.1,3.1c-0.9,3.9-3.2,6.9-6.7,8.9c-0.4,0.2-0.9,0.5-1.3,0.8
			c-1.8,1.5-1.5,1.9,0,3.1c0.6,0.5,1.2,1,1.8,1.6c0.5,0.5,0.5,0.8-0.2,1.2c-2.3,1.5-4.7,3.1-7,4.7c-0.7,0.5-1.5,1.1-2,1.8
			c-1.4,1.7-1.1,3.6,0.8,4.8c1.6,1,3.3,1.2,5.1,1.1c4.2-0.1,7.5-3,8.3-7.1c0.4-2.1,0.3-4.1-0.1-6.2c-0.1-0.4-0.1-0.7,0.3-1
			c2.5-1.3,4.4-3.1,6.3-5.1c0.5-0.5,1-1.1,1.6-1.7c0.2,0.6,0.3,0.9,0.5,1.2c0.5,0.9,1,1.8,1.6,2.6c1.1,1.3,2.5,1.7,4.1,1.1
			c1.4-0.5,2.5-1.4,3.5-2.5c0.9-1.1,1.7-2.2,2.7-3.4c0.2,0.5,0.5,0.9,0.6,1.4c0.2,0.5,0.3,1.1,0.4,1.6c0.7,2.5,2.6,3.5,5,2.4
			c3.4-1.6,5.9-4.3,8.2-7.2c0.6-0.7,0.7-1.6,0.5-2.5c-0.5,0.4-1,0.9-1.4,1.4c-1.8,2.2-3.8,4.1-6.1,5.7c-0.5,0.4-1.3,0.7-1.9,0.6
			c-0.8-0.2-0.5-1.2-0.5-1.9c0.2-3.1,1.1-6,2.2-8.8c0.4-1.1,0.8-2.1,1.2-3.2c0.4-1.3-0.7-2.4-2-2c-0.5,0.1-1,0.4-1.5,0.7
			c-0.3,0.2-0.6,0.4-0.9,0.6c-0.4-0.3-0.7-0.6-1-0.9c-0.7-0.7-1.4-1-2.4-1.1c-2.5,0-4.6,0.9-6.4,2.6c-2,1.9-3.4,4.3-4.7,6.7
			c-2.2,4-5.3,7.2-8.9,9.9c-1.3,1-2.2,1-3.6-0.1c0.2-0.4,0.4-0.8,0.7-1.1c0.9-0.9,1.9-1.7,2.8-2.5c2.6-2.5,4.5-5.3,4.6-9
			c0.2-3.3-1.8-5.9-4.7-6.3c-2.1-0.3-4.2,0.2-5.7,1.8c-1.5,1.6-2.9,3.4-4.1,5.2c-2.2,3.4-4.6,6.5-8.2,8.6c-0.7,0.4-1.4,0.7-2.1,1.1
			c-0.1-0.1-0.2-0.1-0.3-0.2c0.1-1.3,0.2-2.6,0.4-3.9c0.5-3,1.5-5.8,2.6-8.6c0.3-0.8,0.4-1.7,0.5-2.5c0-0.9-0.6-1.5-1.5-1.5
			c-0.5,0-1,0.1-1.5,0.2c-2,0.6-3.7,2-5.2,3.4c-2.8,2.6-4.7,5.9-6.8,9.1c-0.4,0.6-0.8,1.1-1.2,1.7c-0.1-0.6-0.1-1,0-1.5
			c0.5-3.2,1.7-6.2,2.9-9.2c1-2.5,0.3-3.4-2.4-3.2c-0.6,0-0.9,0.2-1.1,0.8c-0.4,1.2-1,2.3-1.4,3.5c-0.9,2.3-1.8,4.6-3.8,6.2
			c-1.7,1.4-3.3,2.9-5.1,4.2c-2.8,2.2-5.8,4-9.3,4.8c-1.9,0.4-3.8,0.5-5.5-0.5c-2-1.1-3.1-3.6-2.6-6.2c1.4-7.2,5.4-12.3,12-15.5
			c1.6-0.7,3.2-1.3,4.8-2c1-0.4,1.1-0.8,0.5-1.7c-0.4-0.6-1-1.1-1.6-1.6c-4.8-3.2-4.9-12,1.7-15c2.2-1,4.1-0.3,5.2,1.8
			c1.2,2.4,0.9,4.9,0.1,7.4c0,0.1-0.1,0.3-0.1,0.4c0,0.1,0,0.3-0.1,0.4c1.5-2.3,2.5-4.8,2.4-7.6c-0.1-3.2-2.2-5.2-5.4-5.2
			C38.4,4.5,38.3,4.5,38.3,4.5z"/>
	</defs>
	<clipPath id="SVGID_1_">
		<use xlink:href="#SVGID_4_"  style="overflow:visible;"/>
	</clipPath>
	<linearGradient id="SVGID_2_" gradientUnits="userSpaceOnUse" x1="46.3666" y1="66.6962" x2="77.3395" y2="12.87">
		<stop  offset="0" style="stop-color:#EED976"/>
		<stop  offset="4.000000e-02" style="stop-color:#9A6D1A"/>
		<stop  offset="7.000000e-02" style="stop-color:#7F571E"/>
		<stop  offset="0.19" style="stop-color:#CEA049"/>
		<stop  offset="0.36" style="stop-color:#E2BF68"/>
		<stop  offset="0.52" style="stop-color:#F8DF86"/>
		<stop  offset="0.74" style="stop-color:#F8DF86"/>
		<stop  offset="0.96" style="stop-color:#9F702D"/>
		<stop  offset="1" style="stop-color:#CEA049"/>
	</linearGradient>
	<rect x="14.7" y="4.5" class="st0" width="100.2" height="60.3"/>
</g>
<path class="st1" d="M58.2,75.7c0.5,0.5,1.1,1.1,1.9,1.7c0.3-0.9,0.6-1.7,0.9-2.5c0.3-0.8,0.3-0.8,1.3-0.6c-0.3,0.9-0.7,1.8-1,2.7
	c-0.5,1.1-0.5,1.1,0.4,2c0.4,0.4,0.9,0.8,1.4,1.3c-0.2,0.3-0.4,0.5-0.6,0.7c-0.7-0.6-1.3-1.2-2-1.8c-0.7,1.2-1.6,2.1-3,2.1
	c-0.8,0-1.5-0.3-2.1-0.9c-1.4-1.5-1.1-3.3,1-5c-0.8-0.8-1.3-1.7-0.9-2.8c0.2-0.5,0.6-1,1-1.3c0.9-0.7,2.2-0.5,3,0.3
	c0.6,0.7,0.9,1.5,0.5,2.3C59.4,74.5,58.8,75,58.2,75.7 M55.5,78c0,1.2,0.6,2,1.4,2.1c1.1,0.2,2.3-0.5,2.6-1.5c0-0.1,0-0.4-0.1-0.5
	c-0.7-0.7-1.4-1.3-2.1-2c-0.1-0.1-0.5-0.2-0.7-0.1C55.9,76.6,55.5,77.2,55.5,78z M57.6,71.6c-0.8,0-1.4,0.6-1.4,1.4
	c0,0.7,0.7,1.8,1.2,1.8c0.7,0,1.5-1,1.5-1.8C58.9,72.2,58.3,71.6,57.6,71.6z"/>
<path class="st1" d="M44.7,83.3c0.3-0.7,0.5-1.2,0.7-1.9c0.1-0.3,0.1-0.6,0-0.8c-0.7-2-1.5-4-2.3-6c-0.3-0.7-0.9-0.3-1.3-0.3
	c-0.5,0-0.4,0.4-0.4,0.7c0,1.7,0,3.5,0,5.2c0,0.2,0,0.5,0,0.7c-0.7,0.1-0.9-0.1-0.9-0.7c0-1.6,0-3.3,0-4.9c0-0.6-0.1-1-0.9-1
	c-0.5,0-0.7-0.3-0.6-0.8c0.1,0,0.1-0.1,0.2-0.1c1.3-0.2,1.3-0.2,1.2-1.4c0-0.3,0-0.7,0-1c0.8-0.2,0.9-0.2,0.9,0.6
	c0,1.7,0,1.7,1.7,1.7c0.5,0,0.7,0.2,0.9,0.6c0.7,1.8,1.3,3.6,2.1,5.5c0.1-0.2,0.2-0.4,0.3-0.5c0.7-1.7,1.4-3.3,2-5
	c0.3-0.7,0.4-0.8,1.3-0.5c-0.4,1.1-0.9,2.2-1.3,3.3c-0.8,2.1-1.7,4.1-2.5,6.2C45.7,83.5,45.4,83.6,44.7,83.3"/>
<path class="st1" d="M7.3,70.8c1.1,0.1,2.1,0.1,3.1,0.2c0.9,0.1,1.6,0.6,1.9,1.5c0.3,1,0.3,2-0.5,2.8c-0.1,0.1-0.2,0.2-0.3,0.3
	c0.1,0.1,0.2,0.2,0.4,0.3c1.2,0.9,1.6,3,0.5,4.1c-0.4,0.4-1,0.8-1.5,0.9c-1,0.2-2,0.1-3,0.1c-0.6,0-0.6-0.4-0.6-0.8c0-2.5,0-5,0-7.5
	C7.3,72.1,7.3,71.5,7.3,70.8 M8.2,78.1c0,2.1,0.2,2.3,2.2,1.9c1.1-0.2,1.6-0.8,1.6-1.8c0-1-0.5-1.6-1.6-1.9c-0.3-0.1-0.7-0.1-1-0.1
	c-1.3,0-1.3,0-1.3,1.2C8.2,77.6,8.2,77.8,8.2,78.1z M8.2,73.5c0,1.9,0.2,2,2,1.6c0.9-0.2,1.3-0.7,1.3-1.6c0-0.8-0.4-1.3-1.2-1.6
	c-0.3-0.1-0.7-0.2-1.1-0.2c-1-0.1-1,0-1,1C8.2,73,8.2,73.3,8.2,73.5z"/>
<path class="st1" d="M84.1,77.5c-2,0-4,0-6,0c-0.9,0-1,0.1-0.6,0.9c0.4,1,1.1,1.7,2.2,1.8c1.1,0.2,2.1-0.1,2.8-1.1
	c0.4-0.6,0.8-0.6,1.3-0.4c-0.4,1.7-2.4,2.9-4.4,2.5c-2.1-0.4-3.5-2.6-3.1-4.9c0.4-2.1,2.4-3.4,4.6-3.1
	C82.8,73.4,84.3,75.4,84.1,77.5 M83,76.6C82.9,75,81.6,74,80,74c-1.4,0.1-2.6,1.2-2.6,2.5H83z"/>
<path class="st1" d="M110,77.4c-1.4,0-2.7,0-4,0c-0.7,0-1.4,0-2.2,0c-0.6,0-0.7,0.2-0.5,0.7c0.4,1.1,1,1.8,2.2,2
	c1.2,0.2,2.2-0.1,2.9-1.1c0.4-0.5,0.8-0.6,1.3-0.5c-0.5,1.9-2.5,2.8-4.2,2.5c-2.2-0.4-3.6-2.5-3.2-4.9c0.4-2.1,2.3-3.4,4.5-3.1
	C108.8,73.4,110.3,75.4,110,77.4 M108.9,76.6c-0.1-1.6-1.3-2.6-2.9-2.5c-1.4,0.1-2.6,1.2-2.6,2.5H108.9z"/>
<path class="st1" d="M21.7,77.4c-1.8,0-3.5,0-5.3,0c-0.2,0-0.5,0-0.7,0c-0.7,0-0.8,0.2-0.6,0.8c0.3,1.1,1,1.7,2.1,1.9
	c1.2,0.2,2.2,0,2.9-1.1c0.4-0.5,0.7-0.6,1.3-0.5c-0.3,1.6-2.3,2.8-4.1,2.5c-1.9-0.3-3.7-2.1-3.2-5c0.4-2,2.5-3.3,4.6-2.9
	C20.6,73.5,22.1,75.5,21.7,77.4 M20.7,76.6c-0.1-1.6-1.3-2.6-3-2.5c-1.5,0.1-2.6,1.2-2.5,2.5H20.7z"/>
<path class="st1" d="M30.3,80.9c-0.8,0.1-0.8-0.5-0.9-1c-1.2,1.1-2.5,1.6-4,1.1c-1-0.3-1.7-0.9-2.2-1.7c-1-1.6-0.7-3.9,0.8-5.3
	c1.5-1.3,3.5-1.2,5.3,0.4c0-0.4,0.1-0.7,0.1-1c0.8-0.2,0.9-0.2,0.9,0.6c0,2,0,4.1,0,6.1C30.4,80.4,30.3,80.6,30.3,80.9 M26.5,80.3
	c1.6,0,3-1.4,3-3.1c0-1.7-1.3-3.1-2.9-3.1c-1.6,0-2.9,1.3-2.9,3.1C23.6,78.9,24.8,80.3,26.5,80.3z"/>
<path class="st1" d="M75.9,80.9c-0.7,0.2-1.1-0.1-1.2-0.7c-0.2-0.6-0.5-1.3-0.7-1.9c-0.1-0.4-0.4-0.5-0.8-0.5c-1.1,0-2.3,0-3.4,0
	c-0.4,0-0.6,0.2-0.7,0.5c-0.2,0.7-0.5,1.3-0.7,2c-0.2,0.7-0.6,0.8-1.3,0.6c0.1-0.3,0.2-0.7,0.3-1c1.1-2.9,2.2-5.7,3.3-8.6
	c0.2-0.4,0.4-0.5,0.8-0.5c0.4,0,0.6,0,0.8,0.4c1.2,3.2,2.4,6.3,3.6,9.4C75.9,80.7,75.9,80.8,75.9,80.9 M73.4,76.9
	c-0.6-1.7-1.2-3.3-1.8-4.8c-0.1,0-0.1,0-0.2,0c-0.6,1.6-1.2,3.2-1.8,4.8H73.4z"/>
<path class="st1" d="M101,80.9c-0.7,0.1-0.9-0.1-0.9-0.7c0-1.5,0-2.9-0.1-4.4c-0.1-1.2-0.7-1.7-2-1.7c-1,0-2,0.6-2.2,1.5
	c-0.1,0.5-0.1,1.1-0.1,1.6c0,1.2,0,2.4,0,3.6c-0.5,0.1-0.9,0-0.9-0.5c0-3.1,0-6.3,0-9.4c0.8-0.3,0.9-0.2,0.9,0.6c0,0.8,0,1.5,0,2.3
	c0,0,0,0.1,0,0.2c0.2-0.1,0.4-0.3,0.6-0.4c1.9-1.3,4.3-0.3,4.7,2c0.1,0.4,0.1,0.9,0.1,1.3C101.1,78.3,101,79.6,101,80.9"/>
<path class="st1" d="M124.7,75.6c-0.5,0.1-0.9,0.1-1.2-0.4c-0.7-1-1.9-1.4-3-1.1c-1.3,0.4-2,1.2-2.2,2.5c-0.2,1.3,0.2,2.4,1.3,3.2
	c1,0.6,2,0.6,3,0c0.3-0.2,0.6-0.4,0.7-0.7c0.3-0.6,0.8-0.7,1.3-0.5c-0.1,1.4-1.8,2.6-3.7,2.6c-2-0.1-3.6-1.8-3.7-3.9
	c-0.1-2.1,1.5-4,3.5-4.2C122.7,72.9,124.5,74.2,124.7,75.6"/>
<path class="st1" d="M38.2,81.1c-0.4-0.2-0.7-0.4-1.1-0.6c-0.7,0.6-1.6,0.7-2.6,0.6c-1.3-0.1-2.2-0.7-2.3-2
	c-0.2-1.8-0.2-3.6-0.2-5.4c0-0.1,0.3-0.3,0.4-0.3c0.2,0,0.5,0.2,0.5,0.4c0,0.8,0,1.6,0,2.4c0,0.8,0,1.6,0.1,2.4
	c0.1,1.1,0.7,1.6,1.6,1.8c1.3,0.1,2.2-0.3,2.6-1.4c0.2-0.5,0.2-1.1,0.2-1.6c0-1.2,0-2.3,0-3.5c0-0.3,0.1-0.5,0.5-0.5
	c0.3,0,0.5,0.1,0.5,0.5c0,2.3,0,4.5,0,6.8C38.3,80.7,38.2,80.8,38.2,81.1"/>
<path class="st1" d="M84.9,78.7c0.6-0.2,0.9-0.1,1,0.5c0.2,0.7,0.7,1.1,1.4,1c0.6,0,1.1-0.3,1.2-1c0.2-0.7-0.1-1.2-0.7-1.6
	c-0.5-0.3-1.1-0.5-1.6-0.7c-0.9-0.5-1.3-1.5-0.9-2.5c0.3-1,1.4-1.5,2.5-1.4c1,0.2,1.6,0.9,1.6,2c-0.5,0.1-0.8,0.2-1.1-0.4
	c-0.2-0.5-0.7-0.8-1.3-0.6c-0.5,0.1-0.8,0.4-0.9,1c-0.1,0.6,0.2,1,0.7,1.2c0.5,0.2,1,0.3,1.4,0.6c1.1,0.5,1.6,1.7,1.2,2.8
	c-0.4,1-1.6,1.7-2.8,1.4C85.6,80.9,84.8,79.9,84.9,78.7"/>
<path class="st1" d="M111.9,70.9c1-0.2,1-0.1,1,0.7c0,0.2,0,0.4,0,0.5c0,1,0,1,1,1.1c0.7,0.1,0.4,0.6,0.4,0.9
	c-0.1,0-0.1,0.1-0.2,0.1c-1.2,0.1-1.2,0.1-1.2,1.3c0,1.5,0,3.1,0,4.6c0,0.2,0,0.4,0,0.6c-0.9,0.1-0.9,0-0.9-0.7c0-1.7,0-3.5,0-5.2
	c0-0.5-0.2-0.8-0.7-0.7c-0.7,0.1-0.8-0.3-0.7-0.9c0.1,0,0.2-0.1,0.3-0.1c1.1-0.1,1.1-0.1,1.1-1.2C111.9,71.7,111.9,71.3,111.9,70.9"
	/>
<path class="st1" d="M90.1,73.4c0.1,0,0.1-0.1,0.2-0.1c1.2-0.2,1.2-0.2,1.2-1.4c0-0.2-0.1-0.5,0-0.7c0.1-0.2,0.3-0.4,0.4-0.4
	c0.3-0.1,0.5,0,0.5,0.4c0,0.4,0,0.9,0,1.3c-0.1,0.6,0.1,0.8,0.7,0.8c0.8,0,0.8,0,0.7,0.9c0,0-0.1,0.1-0.1,0.1
	c-1.5,0-1.3-0.1-1.3,1.3c0,1.5,0,3.1,0,4.6c0,0.2,0,0.5,0,0.7c-0.7,0.1-0.9-0.1-0.9-0.7c0-1.7,0-3.3,0-5c0-0.6-0.1-1-0.8-0.9
	C90.2,74.2,90,73.9,90.1,73.4"/>
<path class="st1" d="M116,81c-0.7,0.2-1,0-1-0.7c0-2.1,0-4.3,0-6.4c0-0.4,0.1-0.5,0.5-0.5c0.3,0,0.6,0.1,0.6,0.5c0,2.3,0,4.6,0,6.9
	C116.1,80.8,116.1,80.9,116,81"/>
<path class="st1" d="M116.1,71.6c-0.1,0.3,0.2,0.8-0.5,0.8c-0.8,0-0.5-0.6-0.5-1c-0.1-0.4,0-0.6,0.5-0.7
	C116.2,70.8,116.1,71.2,116.1,71.6"/>
</svg>
