<?xml version="1.0" encoding="utf-8"?>
<!-- Generator: Adobe Illustrator 23.0.0, SVG Export Plug-In . SVG Version: 6.00 Build 0)  -->
<svg version="1.1" id="Layer_1" xmlns:svgjs="http://svgjs.dev/svgjs"
	 xmlns="http://www.w3.org/2000/svg" xmlns:xlink="http://www.w3.org/1999/xlink" x="0px" y="0px" viewBox="0 0 300 300"
	 style="enable-background:new 0 0 300 300;" xml:space="preserve">
<style type="text/css">
	.st0{fill:#D5BB01;}
</style>
<g transform="matrix(1,0,0,1,0,0)">
	<g>
		<g>
			<path class="st0" d="M265.3,250.3c17.8,0.1,25.5-20.7,25-35.7c-1.1-14.7-7.8-23.3-15.5-33.3c-11-13-23.7-35.4-26.2-53.6
				c-1.1-7.9-2.1-19.4-1.8-27.2c2.8-46.6-24.2-77.5-75.4-91.6C132.1-3,74.9,21,57.4,56.2c-12.7,25.2-5.4,46.1-10,72
				c-2.7,18.2-15.2,40.1-26.1,53.1c-7.7,10-14.4,18.6-15.5,33.2c-1.1,17.2,10.4,41,31.2,34.9c4-1.2,8.1-2.1,12.1-2.9
				c-2.8,2.5-19.7,25.2-11.3,25.7h78.6c1.1,2.1,1.5,5.9,4.4,6.1c1.9,0.1,3.2-2.1,2.2-3.8c-0.4-0.8-0.8-1.5-1.1-2.3h7.6
				c7.9,13.7,29.4,13.7,37.3,0h91.6c8.4-0.5-8.5-23.1-11.3-25.7c4,0.9,8.1,1.8,12.1,2.9C261.2,250,263.3,250.3,265.3,250.3
				L265.3,250.3z M126,13.8c38.7-12,94,14.5,108.2,44.7c9.4,18.5,7,34.9,7.9,53.6c-8.2,1-16.6-0.4-16.8-0.4
				c-13.2-1.2-24.6-5.2-33.8-11.7c-14.4-10.8-18.9-20.8-37.1-31.5c-25.9-15.1-35-9-71-34.9C94.5,25.2,108.7,18.6,126,13.8L126,13.8z
				 M167.3,199.9c-18.6,5.7-38.8,3.3-54.9-7.1c-12.2-8.3-21-17.3-27.1-28.1c-7.5-13.9-11.2-28.5-11.5-42.4
				c11.5-5.7,20.2-12.1,26.5-19.5c10.8-12.7,15.7-28.4,27-40.7c17.6,4.6,37.2,17.6,47.5,29.6c12.4,13.7,27.7,22.5,47.5,24.7
				C223.8,153.7,201.6,189.8,167.3,199.9z M61.9,58.5c4.3-8.3,10.1-15.6,17.4-21.7c14.9,12.1,35,20.5,42.9,23.6
				c-10.5,11.8-15.5,27.3-25.7,39.1c-6.2,7.1-14.6,13.2-26,18.8c-1.8,0.2-10.4,1.3-16.8,0.4C55.7,97.5,51.4,79.2,61.9,58.5z
				 M35.7,244.5c-17.3,5.1-25.5-15.8-24.8-29.5c1-13.2,6.6-20.4,14.5-30.6c12.5-14.9,26.2-39.7,27.8-60.6c4.7,0.8,11.7,0.4,15.7-0.1
				c0.5,14.4,4.7,30.4,12.7,44.6c8.7,15,25.4,30,43.5,36.2l-2.8,14.2c-1.1,3.4-4.2,5.7-7.7,5.9c-7.4,0.4-22.7,0.3-29.8,1.9
				c-10.5,2.2-20.4,6.8-28.8,13.5C49.2,241.1,42.4,242.5,35.7,244.5z M148.1,277.4c-22.4-0.7-22.5-33.3,0-34
				C170.5,244.1,170.4,276.7,148.1,277.4z M181.1,267c0.2-2.8,2.5-8.6-1.8-9.1c-1.4,0-2.5,1.1-2.5,2.5c0,2.2-0.3,4.5-0.8,6.6H169
				c4.5-13.9-6.4-28.9-21-28.7c-14.6-0.2-25.6,14.8-21,28.7h-7c-0.8-2-3.8-2-4.6,0H41.5c9.1-21.3,31-36.2,54.1-36.7l19.1-0.7
				c5.6-0.2,10.6-4,12.4-9.7l2.8-14c11.9,2.9,24.4,2.7,36.2-0.4l2.9,14.6c1.7,5.4,6.6,9.2,12.3,9.4c7,0.4,22.4,0.3,29.1,1.8
				c19.2,3.7,36.4,17.6,44.1,35.6h-73.5L181.1,267z M240.1,239.9c-9.7-7.9-21.6-12.9-34-14.4c-3.8-0.5-20.3-0.9-24.4-1.1
				c-3.6-0.2-6.6-2.5-7.6-5.6l-3-14.9c34.9-11.4,57.7-48.5,56.4-87c3.9,0.5,10.3,0.6,15,0.1l1.3,11.4c2.6,19,15.8,42.4,27.2,56
				c7.8,10.1,13.4,17.4,14.4,30.5c0.6,13.7-7.3,34.3-24.5,29.7C253.9,242.5,246.9,241.1,240.1,239.9L240.1,239.9z"/>
		</g>
		<g>
			<path class="st0" d="M282.7,85.1c-1.4,0-2.5,1.1-2.5,2.5v8.6c0,1.4,1.1,2.5,2.5,2.5s2.5-1.1,2.5-2.5v-8.6
				C285.2,86.3,284.1,85.1,282.7,85.1z"/>
		</g>
		<g>
			<path class="st0" d="M285.2,117.2v-8.6c0-3.3-5-3.3-5,0v8.6C280.2,120.5,285.2,120.5,285.2,117.2z"/>
		</g>
		<g>
			<path class="st0" d="M297.5,99.9h-8.6c-3.3,0-3.3,5,0,5h8.6C300.8,104.9,300.8,99.9,297.5,99.9z"/>
		</g>
		<g>
			<path class="st0" d="M276.5,104.9c3.3,0,3.3-5,0-5h-8.6c-3.3,0-3.3,5,0,5H276.5z"/>
		</g>
		<g>
			<path class="st0" d="M56.5,198.6c1.4,0,2.5-1.1,2.5-2.5v-8.6c0-1.4-1.1-2.5-2.5-2.5s-2.5,1.1-2.5,2.5v8.6
				C54,197.5,55.1,198.6,56.5,198.6z"/>
		</g>
		<g>
			<path class="st0" d="M59.1,217.1v-8.6c0-3.3-5-3.3-5,0v8.6C54,220.4,59,220.4,59.1,217.1z"/>
		</g>
		<g>
			<path class="st0" d="M62.7,204.8h8.6c3.3,0,3.3-5,0-5h-8.6C59.4,199.8,59.4,204.8,62.7,204.8z"/>
		</g>
		<g>
			<path class="st0" d="M50.3,199.8h-8.6c-3.3,0-3.3,5,0,5h8.6C53.6,204.8,53.6,199.8,50.3,199.8z"/>
		</g>
		<g>
			<path class="st0" d="M17.3,98.7c1.4,0,2.5-1.1,2.5-2.5v-8.6c0-1.4-1.1-2.5-2.5-2.5s-2.5,1.1-2.5,2.5v8.6
				C14.8,97.6,15.9,98.7,17.3,98.7z"/>
		</g>
		<g>
			<path class="st0" d="M14.8,117.2c0,3.3,5,3.3,5,0v-8.6c0-3.3-5-3.3-5,0L14.8,117.2z"/>
		</g>
		<g>
			<path class="st0" d="M23.6,104.9h8.6c3.3,0,3.3-5,0-5h-8.6C20.2,99.9,20.2,104.9,23.6,104.9z"/>
		</g>
		<g>
			<path class="st0" d="M13.7,102.4c0-1.4-1.1-2.5-2.5-2.5H2.6c-1.4,0-2.5,1.1-2.5,2.5c0,1.4,1.1,2.5,2.5,2.5h8.6
				C12.5,104.9,13.7,103.8,13.7,102.4z"/>
		</g>
		<g>
			<path class="st0" d="M159.5,173.6c-6.7,3.6-18.5,2.9-23.8,0c-3-1.3-5.1,3.2-2.1,4.6c8.8,4,19.1,4,27.9,0c1.3-0.6,1.8-2.1,1.3-3.3
				C162.3,173.6,160.8,173,159.5,173.6L159.5,173.6z"/>
		</g>
		<g>
			<path class="st0" d="M124.2,132.9c-3.5,4-11.3,3.4-14.2,0c-2.2-2.4-6,0.9-3.7,3.4c4.8,5.6,16.4,6.2,21.7,0
				C130.2,133.8,126.4,130.5,124.2,132.9z"/>
		</g>
		<g>
			<path class="st0" d="M178.8,140.8c6.1-0.2,9.5-3.8,10.1-4.5c2.2-2.5-1.6-5.8-3.8-3.3c-0.2,0.3-2.5,2.6-6.6,2.8
				c-4.7,0.2-7.4-2.7-7.6-2.8c-2.2-2.5-6,0.9-3.8,3.3C167.2,136.4,172.4,141.3,178.8,140.8z"/>
		</g>
		<g>
			<path class="st0" d="M127.1,110.7c-21.3-1.8-37.8,13.9-28.8,15.3c0.8,0,1.5-0.4,2-1c0.4-0.4,8.3-10.5,26.5-9.3
				C130.1,116,130.4,110.9,127.1,110.7z"/>
		</g>
		<g>
			<path class="st0" d="M169.3,115.8c18.2-1.2,26.2,8.8,26.5,9.3c0.8,1.1,2.4,1.3,3.5,0.5c1.1-0.8,1.3-2.4,0.5-3.5
				c-0.4-0.5-9.7-12.7-30.9-11.3C165.7,111,165.9,116,169.3,115.8z"/>
		</g>
		<g>
			<path class="st0" d="M155.9,293.2c3.1-0.5,6.1-1.9,8.8-3.4c1.2-0.7,1.6-2.2,0.9-3.5c-0.7-1.2-2.2-1.6-3.5-0.9
				c-2.2,1.2-4.6,2.2-7,2.9C152.4,289,153,293.3,155.9,293.2L155.9,293.2z"/>
		</g>
		<g>
			<path class="st0" d="M118.7,249.3c-4.6-0.9-4,7.5-4.5,10.5c0,1.4,1.1,2.5,2.5,2.6c1.4,0,2.5-1.1,2.6-2.5c0.1-2.5,0.4-5,1.1-7.4
				C120.8,251.1,120,249.7,118.7,249.3L118.7,249.3z"/>
		</g>
		<g>
			<path class="st0" d="M147.7,294.2c3.3,0,3.3-5,0.1-5c-2.5,0-5-0.4-7.5-1.1c-1.3-0.4-2.8,0.4-3.1,1.8
				C136.3,294.5,144.7,293.8,147.7,294.2z"/>
		</g>
		<g>
			<path class="st0" d="M171.9,284.4c1.9-2.4,8.3-7.7,4.5-10.5c-1.2-0.7-2.8-0.3-3.5,0.9c-1.3,2.2-2.8,4.2-4.6,6
				C165.9,283.2,169.5,286.8,171.9,284.4L171.9,284.4z"/>
		</g>
		<g>
			<path class="st0" d="M133.4,285.1c-2.2-1.3-4.2-2.9-5.9-4.7c-1-1-2.6-1-3.6-0.1c-1,1-1,2.6-0.1,3.6c2.5,2.2,5,5,8.3,5.9
				C134.5,289.9,135.5,286.3,133.4,285.1z"/>
		</g>
		<g>
			<path class="st0" d="M147.9,222.9c-2.6-2.5-6.1,1.6-3.3,3.8c-9.9,1-18.9,6.3-24.6,14.7c-1.8,1.8-1.8,5,1.3,5.2
				c1.5,0.1,2.2-1.3,2.9-2.4c4.6-6.7,11.7-11.1,19.5-12.3c-0.4,2.3,2.6,3.8,4.3,2.1l3.8-3.8c1-1,1-2.6,0-3.6L147.9,222.9z"/>
		</g>
		<g>
			<path class="st0" d="M148,250.5c-1.4,0-2.5,1.1-2.5,2.5v5.9l-4.1,2.3c-2.9,1.6-0.4,6,2.5,4.4l5.4-3c0.8-0.5,1.3-1.3,1.3-2.2v-7.3
				C150.6,251.7,149.4,250.5,148,250.5z"/>
		</g>
	</g>
</g>
</svg>
