<svg id="Layer_2" viewBox="0 0 64 64" xmlns="http://www.w3.org/2000/svg" data-name="Layer 2"><path d="m30.15 8.69v2.84s.05.02.07.03c.28.11.56.2.84.26l.15.03c.27.05.53.08.79.08h.03.11c.24 0 .47-.03.71-.08.06-.01.11-.02.17-.03.25-.06.51-.14.76-.25.03-.01.05-.02.08-.03v-2.85c-1.2-.66-2.41-.66-3.7 0z" fill="#fdb22a"/><path d="m35.86 7.67c.1-.02.21-.04.31-.06.17-.04.35-.07.52-.11.1-.02.2-.05.29-.07.18-.05.36-.09.55-.14.09-.02.18-.05.26-.07.2-.06.41-.12.61-.19.06-.02.12-.04.19-.06.53-.18 1.06-.37 1.56-.58.03-.01.06-.03.1-.04.22-.09.43-.18.64-.27.07-.03.13-.06.19-.09.17-.08.34-.16.51-.24.08-.04.15-.07.22-.11.15-.08.3-.15.45-.23.08-.04.15-.08.23-.12.14-.07.27-.15.4-.22.08-.04.15-.09.22-.13.13-.07.25-.15.37-.22.07-.04.14-.08.21-.13.12-.07.23-.15.34-.22.06-.04.12-.08.18-.12.11-.08.21-.15.31-.22.05-.04.11-.08.16-.11.11-.08.2-.16.3-.23.04-.03.08-.06.12-.09.13-.11.24-.21.35-.31.13-.12.24-.24.33-.34.08-.09.14-.17.19-.25.03-.04.04-.07.06-.11.01-.02.03-.06.04-.08.06-.12.07-.19.07-.23 0 0 0-.01 0-.02-.02-.05-.27-.24-1.18-.24-3.86 0-7.72 3.83-9.37 5.69.09-.01.17-.03.26-.04z" fill="#fdb22a"/><path d="m34.88 8.85v2.61c.2.04.4.09.6.13.03 0 .05.01.08.02.33.06.68.11 1.03.16 1.06.13 2.2.18 3.35.15.71 0 1.45-.06 2.22-.16.7-.08 1.37-.18 2.01-.32.58-.12 1.14-.27 1.65-.46.17-.05.31-.11.44-.16.15-.06.29-.12.41-.18.78-.39.85-.63.85-.66v-.06c0-.8-.04-1.53-.07-2.19-.13-2.15-.46-3.5-.75-4.32-.05.06-.1.13-.16.19-.1.12-.24.27-.4.42-2.06 1.96-6.88 4.31-11.27 4.83z" fill="#fec52d"/><path d="m17.86 2.26s0 .01 0 .02c0 .02 0 .06.03.11v.01c0 .02.02.03.02.05.02.02.06.11.07.13.04.09.13.2.21.29.11.14.23.27.37.4l.08.07s.09.08.14.12c.11.1.17.16.25.22.21.16.41.32.63.46.13.1.23.17.33.23.49.33 1.02.65 1.59.94.15.08.29.16.43.22.13.08.24.13.35.18l.12.06c.17.07.38.17.59.26l.12.05c1.66.74 3.4 1.28 5.01 1.58.07.01.15.02.22.04-1.64-1.86-5.51-5.7-9.37-5.7-.91 0-1.16.19-1.18.24z" fill="#fdb22a"/><path d="m16.49 9.91v.16c.11.5 3.16 1.72 7.57 1.83 1.52.04 3.05-.07 4.39-.31.2-.04.39-.08.58-.12.03 0 .06-.01.09-.02v-2.62c-.14-.02-.28-.03-.42-.05-.24-.03-.48-.07-.71-.12-1.7-.31-3.51-.88-5.25-1.65l-.12-.06c-.2-.09-.4-.18-.6-.27l-.14-.07c-.13-.06-.25-.12-.37-.19-.13-.06-.29-.15-.44-.23-.6-.31-1.16-.64-1.65-.98-.11-.07-.26-.16-.39-.27-.2-.13-.42-.3-.62-.46-.1-.07-.22-.17-.32-.27-.02-.01-.09-.07-.15-.13l-.08-.07c-.2-.18-.34-.34-.47-.5-.03-.03-.06-.07-.09-.11-.29.82-.62 2.18-.75 4.32-.04.65-.06 1.37-.06 2.18z" fill="#fec52d"/><path d="m25.7 55.52c-4.66-2.33-7.88-7.13-7.88-12.68s3.22-10.36 7.88-12.68v-5.63h-18.24v37.45h18.23v-6.46z" fill="#ffef78"/><path d="m38.3 30.16c4.66 2.33 7.88 7.13 7.88 12.68s-3.22 10.36-7.88 12.68v6.46h18.23v-37.45h-18.23z" fill="#ffef78"/><path d="m25.7 23.51v-10.57h-11.96-10.78v10.57h4z" fill="#e65dca"/><path d="m38.3 12.94v10.57h18.74 4v-10.57h-10.98z" fill="#e65dca"/><path d="m61.55 11.93h-8.87c2.68-1.15 6.73-3.15 8.27-5.19.12-.15.13-.36.05-.53s-.26-.28-.45-.29l-4.03-.08.64-3.89c.04-.22-.08-.44-.27-.54-.2-.1-.44-.06-.59.1-2 2.1-6.25 4.49-7.89 5.38-.31-3.34-1.09-4.72-1.34-5.08 0-.01-.02-.02-.03-.03-.41-.78-1.64-.79-2.06-.79-4.94 0-9.59 5.33-10.74 6.74-1.44-.75-2.93-.75-4.46 0-1.13-1.4-5.79-6.75-10.74-6.75-.43 0-1.66 0-2.07.79 0 .01-.02.02-.03.03-.32.47-1.04 1.89-1.33 5.07-1.64-.88-5.89-3.28-7.89-5.38-.15-.16-.39-.2-.59-.1s-.31.32-.27.54l.64 3.89-4.03.08c-.19 0-.36.11-.45.29s-.06.38.05.53c1.49 1.98 5.42 3.97 8.16 5.19h-8.78c-.28 0-.51.23-.51.51v11.59c0 .28.23.51.51.51h3.99v37.96c0 .28.23.51.51.51h50.09c.28 0 .51-.23.51-.51v-37.95h3.99c.28 0 .51-.23.51-.51v-11.59c0-.28-.23-.51-.51-.51zm-5.01 50.06h-18.23v-6.46c4.66-2.33 7.88-7.13 7.88-12.68s-3.22-10.36-7.88-12.68v-5.63h18.23zm-29.82 0v-5.98c.29.12.59.21.89.31.08.02.15.05.22.08.36.11.73.2 1.1.28.09.02.17.04.26.06.36.07.72.12 1.09.17.1.01.21.03.31.04.94.09 1.89.09 2.83 0 .11-.01.21-.03.31-.04.36-.04.73-.09 1.09-.17.09-.02.17-.04.26-.06.37-.08.74-.17 1.1-.28.08-.02.15-.05.22-.08.3-.1.6-.19.89-.31v5.98zm-23.76-49.05h22.74v10.57h-22.74zm5.12-6.1c.15 0 .29-.07.38-.18s.13-.26.11-.41l-.49-3.01c2.52 2.12 6.34 4.18 7.43 4.76-.03.58-.04 1.21-.04 1.92v.26c.15.7 1.05 1.29 2.35 1.75h-3.99c-3.36-1.33-7.29-3.25-9.23-5.01l3.48-.07zm20.32.87c-.07-.01-.15-.02-.22-.04-1.62-.3-3.35-.84-5.01-1.58l-.12-.05c-.21-.09-.41-.19-.59-.26l-.12-.06c-.11-.05-.21-.11-.35-.18s-.28-.14-.43-.22c-.58-.3-1.1-.61-1.59-.94-.1-.06-.2-.12-.33-.23-.21-.14-.42-.3-.63-.46-.08-.05-.14-.11-.25-.22-.05-.04-.09-.08-.14-.12l-.08-.07c-.14-.13-.26-.26-.37-.4-.08-.09-.17-.2-.21-.29-.01-.03-.06-.11-.07-.13 0-.01-.01-.03-.02-.05 0 0 0 0 0-.01-.02-.05-.02-.09-.03-.11 0 0 0-.01 0-.02.02-.05.27-.24 1.18-.24 3.86 0 7.73 3.84 9.37 5.7zm16.57-5.7c.91 0 1.16.19 1.18.24v.02c0 .04-.01.11-.07.23 0 .02-.03.05-.04.08-.02.03-.03.06-.06.11-.05.07-.11.15-.19.25-.09.11-.2.22-.33.34-.11.1-.22.2-.35.31-.04.03-.08.06-.12.09-.09.08-.19.15-.3.23-.05.04-.1.08-.16.11-.1.07-.21.15-.31.22-.06.04-.12.08-.18.12-.11.07-.22.15-.34.22-.07.04-.14.08-.21.13-.12.07-.24.15-.37.22-.07.04-.15.09-.22.13-.13.07-.27.15-.4.22-.08.04-.15.08-.23.12-.15.08-.3.15-.45.23-.07.04-.15.07-.22.11-.17.08-.34.16-.51.24-.06.03-.13.06-.19.09-.21.09-.42.18-.64.27-.03.01-.06.03-.1.04-.51.21-1.03.4-1.56.58-.06.02-.12.04-.19.06-.2.06-.4.13-.61.19-.09.03-.17.05-.26.07-.18.05-.36.1-.55.14-.1.02-.2.05-.29.07-.17.04-.35.08-.52.11-.1.02-.21.04-.31.06-.09.02-.17.03-.26.04 1.65-1.86 5.51-5.69 9.37-5.69zm3.56 7.9c0-.69-.02-1.33-.05-1.91 1.09-.57 4.91-2.64 7.44-4.76l-.49 3.01c-.02.15.02.29.11.41s.23.18.38.18l3.48.07c-2.65 2.41-8.6 4.7-9.43 5.01h-3.81c.17-.05.34-.12.48-.18.16-.07.31-.13.46-.2.86-.43 1.31-.87 1.42-1.47v-.16zm-1.82-6.51c.29.81.61 2.17.75 4.32.03.66.06 1.39.06 2.19v.06s-.06.27-.84.66c-.13.06-.26.12-.41.18-.13.05-.27.11-.44.16-.51.18-1.07.34-1.65.46-.64.13-1.31.24-2.01.32-.77.1-1.51.15-2.22.16-1.14.03-2.28-.02-3.35-.15-.35-.04-.7-.1-1.03-.16-.03 0-.05-.01-.08-.02-.2-.04-.4-.09-.6-.13v-2.61c4.39-.52 9.22-2.87 11.27-4.83.16-.15.3-.3.4-.42.06-.06.11-.13.16-.19zm-14.7 52.6c-7.26 0-13.16-5.9-13.16-13.16s5.9-13.16 13.16-13.16 13.16 5.9 13.16 13.16-5.9 13.16-13.16 13.16zm5.29-31.98v5.66c-.27-.11-.55-.2-.83-.29-.1-.03-.2-.07-.3-.1-.33-.1-.67-.18-1.01-.26-.12-.03-.23-.06-.35-.08-.31-.06-.63-.1-.95-.15-.15-.02-.3-.05-.45-.06-.3-.03-.6-.03-.89-.05-.17 0-.34-.03-.51-.03s-.34.02-.51.03c-.3.01-.6.02-.89.05-.15.01-.3.04-.45.06-.32.04-.64.08-.95.15-.12.02-.23.06-.35.08-.34.08-.67.16-1.01.26-.1.03-.2.07-.3.1-.28.09-.55.18-.83.29v-16.74h10.57v11.08zm-20-20.61s.06.08.09.11c.13.16.28.32.47.5l.08.07c.06.06.13.12.15.13.1.1.22.2.32.27.2.16.43.33.62.46.13.11.28.21.39.27.5.34 1.06.67 1.65.98.15.09.32.17.44.23.12.07.24.13.37.19l.14.07c.19.08.39.17.6.27l.12.06c1.74.77 3.55 1.34 5.25 1.65.23.04.47.08.71.12.14.02.28.04.42.05v2.62s-.06.01-.09.02c-.19.04-.38.08-.58.12-1.34.24-2.87.35-4.39.31-4.42-.11-7.46-1.33-7.57-1.83v-.16c0-.82.02-1.53.06-2.18.13-2.14.46-3.5.75-4.32zm16.55 8.13s-.05.02-.08.03c-.25.1-.5.19-.76.25-.06.01-.11.02-.17.03-.23.04-.47.07-.71.08-.04 0-.07 0-.11 0-.01 0-.02 0-.03 0-.26 0-.52-.03-.79-.08-.05 0-.1-.02-.15-.03-.27-.06-.55-.15-.84-.26-.02 0-.05-.02-.07-.03v-2.84c1.28-.67 2.5-.67 3.7 0v2.85zm-26.39 12.99h18.23v5.63c-4.66 2.33-7.88 7.13-7.88 12.68s3.22 10.36 7.88 12.68v6.46h-18.23zm53.57-1.02h-22.74v-10.57h22.74z"/><path d="m26.71 12.94v16.74c.27-.11.55-.2.83-.29.1-.03.2-.07.3-.1.33-.1.67-.18 1.01-.26.12-.03.23-.06.35-.08.31-.06.63-.1.95-.15.15-.02.3-.05.45-.06.3-.03.6-.03.89-.05.17 0 .34-.03.51-.03s.34.02.51.03c.3.01.6.02.89.05.15.01.3.04.45.06.32.04.64.08.95.15.12.02.23.06.35.08.34.08.67.16 1.01.26.1.03.2.07.3.1.28.09.55.18.83.29v-16.74h-10.57z" fill="#fd80e3"/><path d="m36.4 56.31c-.08.02-.15.05-.22.08-.36.11-.73.2-1.1.28-.09.02-.17.04-.26.06-.36.07-.72.12-1.09.17-.1.01-.21.03-.31.04-.94.09-1.89.09-2.83 0-.11-.01-.21-.03-.31-.04-.36-.04-.73-.09-1.09-.17-.09-.02-.17-.04-.26-.06-.37-.08-.74-.17-1.1-.28-.08-.02-.15-.05-.22-.08-.3-.1-.6-.19-.89-.31v5.98h10.57v-5.98c-.29.12-.59.21-.89.31z" fill="#fd80e3"/><g fill="#fdb22a"><path d="m47.11 11.55c-.15.07-.3.13-.46.2-.14.06-.31.12-.48.18h3.81c.83-.31 6.78-2.6 9.43-5.01l-3.48-.07c-.15 0-.29-.07-.38-.18s-.13-.26-.11-.41l.49-3.01c-2.53 2.12-6.35 4.19-7.44 4.76.02.59.05 1.22.05 1.91v.16c-.11.61-.56 1.04-1.42 1.47z"/><path d="m17.82 11.93c-1.3-.46-2.2-1.05-2.34-1.75v-.26c0-.7 0-1.33.03-1.92-1.09-.58-4.91-2.64-7.43-4.76l.49 3.01c.02.15-.02.29-.11.41s-.23.18-.38.18l-3.48.07c1.94 1.76 5.87 3.68 9.23 5.01h3.99z"/><path d="m45.16 42.84c0-7.26-5.9-13.16-13.16-13.16s-13.16 5.9-13.16 13.16 5.9 13.16 13.16 13.16 13.16-5.9 13.16-13.16zm-20.93-7.36c1.09-1.09 2.87-1.09 3.96 0s1.09 2.87 0 3.96c-.55.55-1.26.82-1.98.82s-1.43-.27-1.98-.82c-1.09-1.09-1.09-2.87 0-3.96zm.9 11.24 10.34-10.34c.94-.94 2.46-.94 3.4 0 .45.45.7 1.06.7 1.7s-.25 1.25-.7 1.7l-10.34 10.34c-.47.47-1.08.7-1.7.7s-1.23-.23-1.7-.7c-.94-.94-.94-2.46 0-3.4zm14.64 4.3c-.55.55-1.26.82-1.98.82s-1.43-.27-1.98-.82-.82-1.23-.82-1.98.29-1.45.82-1.98c1.06-1.06 2.9-1.06 3.96 0 .53.53.82 1.23.82 1.98s-.29 1.45-.82 1.98z"/></g><path d="m24.95 38.73c.69.69 1.83.69 2.52 0s.69-1.83 0-2.52c-.35-.35-.8-.52-1.26-.52s-.91.17-1.26.52c-.69.7-.69 1.83 0 2.52z" fill="#ffef78"/><path d="m28.19 39.45c1.09-1.09 1.09-2.87 0-3.96s-2.87-1.09-3.96 0-1.09 2.87 0 3.96c.55.55 1.26.82 1.98.82s1.43-.27 1.98-.82zm-.72-3.24c.69.7.69 1.83 0 2.52s-1.83.69-2.52 0c-.69-.7-.69-1.83 0-2.52.35-.35.8-.52 1.26-.52s.91.17 1.26.52z"/><path d="m39.05 47.78c-.34-.34-.78-.52-1.26-.52s-.92.19-1.26.52c-.34.34-.52.78-.52 1.26s.19.92.52 1.26c.7.7 1.83.7 2.52 0 .34-.34.52-.79.52-1.26s-.19-.92-.52-1.26z" fill="#ffef78"/><path d="m35.81 47.06c-.53.53-.82 1.23-.82 1.98s.29 1.45.82 1.98 1.26.82 1.98.82 1.43-.27 1.98-.82c.53-.53.82-1.23.82-1.98s-.29-1.45-.82-1.98c-1.06-1.06-2.9-1.06-3.96 0zm.72 3.24c-.34-.34-.52-.79-.52-1.26s.19-.92.52-1.26c.34-.34.78-.52 1.26-.52s.92.19 1.26.52c.34.34.52.78.52 1.26s-.19.92-.52 1.26c-.69.7-1.82.7-2.52 0z"/><path d="m25.85 47.44c-.54.54-.54 1.42 0 1.96s1.42.54 1.96 0l10.34-10.34c.26-.26.41-.61.41-.98s-.14-.72-.41-.98c-.27-.27-.63-.4-.98-.4s-.71.13-.98.4z" fill="#ffef78"/><path d="m28.53 50.12 10.34-10.34c.45-.45.7-1.06.7-1.7s-.25-1.24-.7-1.7c-.94-.94-2.46-.94-3.4 0l-10.34 10.34c-.94.94-.94 2.46 0 3.4.47.47 1.08.7 1.7.7s1.23-.23 1.7-.7zm9.62-13.02c.26.26.41.61.41.98s-.14.72-.41.98l-10.34 10.34c-.54.54-1.42.54-1.96 0s-.54-1.42 0-1.96l10.34-10.34c.27-.27.63-.4.98-.4s.71.13.98.4z"/></svg>