<svg height="511pt" viewBox="-37 0 511 511.99797" width="511pt" xmlns="http://www.w3.org/2000/svg"><path d="m96.316406 330.640625v-77.972656l63.6875-51.203125 55.824219 160.367187-119.511719 37.554688" fill="#ee9e04"/><path d="m32.949219 370.449219 16.25 109.519531c2.082031 14.03125 14.125 24.417969 28.308593 24.417969 7.589844 0 14.867188-3.015625 20.234376-8.378907l29.464843-29.46875 7.6875-78.160156" fill="#ff7265"/><path d="m86.628906 502.886719c-2.910156.996093-5.988281 1.503906-9.121094 1.503906-14.191406 0-26.230468-10.382813-28.308593-24.421875l-16.25-109.515625 18.757812 3.296875 15.761719 106.21875c1.613281 10.882812 9.214844 19.570312 19.160156 22.917969zm0 0" fill="#e53045"/><path d="m407.660156 208.292969c0 23.445312 24.1875 42.65625 1.226563 44.496093-1.195313.101563-2.414063.152344-3.632813.152344-3.125 0-6.171875-.316406-9.113281-.933594h-268.929687c-2.945313.617188-5.988282.933594-9.117188.933594h-.027344c-24.65625-.019531-44.621094-19.996094-44.621094-44.648437 0-23.246094 17.761719-42.335938 40.457032-44.4375 1.382812-.140625 2.78125-.203125 4.191406-.203125 1.878906 0 3.714844.113281 5.53125.335937h276.097656c1.816406-.222656 3.652344-.335937 5.53125-.335937 2.648438 0 5.246094.234375 7.765625.679687 20.957031 3.664063-5.359375 21.953125-5.359375 43.960938zm0 0" fill="#ffd0a6"/><path d="m413.019531 164.332031v56.554688c0 10.984375-1.433593 21.671875-4.132812 31.902343-1.195313.101563-2.414063.152344-3.632813.152344-3.125 0-6.171875-.316406-9.113281-.933594h-268.929687c-2.945313.617188-5.988282.933594-9.117188.933594h-.027344c-2.722656-10.28125-4.164062-21.011718-4.164062-32.054687v-57.03125c1.382812-.140625 2.78125-.203125 4.191406-.203125 1.878906 0 3.714844.113281 5.53125.335937h276.097656c1.816406-.222656 3.652344-.335937 5.53125-.335937 2.648438 0 5.246094.234375 7.765625.679687zm0 0" fill="#e8b182"/><path d="m399.722656 446.0625v57.761719h-272.515625v-57.761719c0-75.253906 61.003907-136.261719 136.253907-136.261719 10.644531 0 21.007812 1.226563 30.957031 3.53125 25.199219 5.855469 47.714843 18.707031 65.394531 36.375 24.652344 24.664063 39.910156 58.726563 39.910156 96.355469zm0 0" fill="#e53045"/><path d="m399.722656 446.0625v57.761719h-210.601562v-57.761719c0-64.605469 44.964844-118.714844 105.296875-132.730469 25.199219 5.855469 47.714843 18.707031 65.394531 36.375 24.652344 24.664063 39.910156 58.726563 39.910156 96.355469zm0 0" fill="#ff7265"/><path d="m399.722656 143.871094v92.789062c0 66.398438-47.503906 121.707032-110.382812 133.792969-8.371094 1.617187-17.03125 2.457031-25.878906 2.457031-75.25 0-136.253907-61-136.253907-136.25v-92.789062c0-75.25 61.003907-136.261719 136.253907-136.261719 8.847656 0 17.507812.84375 25.878906 2.457031 27.253906 5.238282 51.613281 18.59375 70.472656 37.453125 24.652344 24.664063 39.910156 58.726563 39.910156 96.351563zm0 0" fill="#e8b182"/><path d="m325.292969 358.085938c.296875 1.53125.4375 3.09375.4375 4.679687 0 21.839844-27.882813 39.542969-62.269531 39.542969-34.386719 0-62.257813-17.703125-62.257813-39.542969 0-1.574219.140625-3.128906.425781-4.648437" fill="#e8b182"/><path d="m399.722656 143.871094v92.789062c0 66.398438-47.503906 121.707032-110.382812 133.792969-62.875-12.085937-110.378906-67.394531-110.378906-133.792969v-92.789062c0-66.402344 47.503906-121.71875 110.378906-133.804688 27.253906 5.238282 51.613281 18.59375 70.472656 37.453125 24.652344 24.664063 39.910156 58.726563 39.910156 96.351563zm0 0" fill="#f9c991"/><path d="m171.140625 427.800781-17.066406 7.046875c-11.886719 4.90625-24.316407 6.453125-36.246094 5.089844-25.613281-2.941406-48.902344-19.339844-59.429687-44.859375l-44.695313-108.277344c-15.445313-37.402343 2.359375-80.238281 39.765625-95.675781l17.066406-7.046875c6.390625-2.636719 13.707032.40625 16.34375 6.796875l18.398438 44.558594c2.636718 6.386718-.402344 13.707031-6.792969 16.34375l-17.070313 7.050781-5.152343 2.121094c-11.5 4.75-16.972657 17.921875-12.226563 29.421875l27.519532 66.671875c4.75 11.5 17.921874 16.972656 29.421874 12.226562l5.152344-2.121093 17.066406-7.050782c6.390626-2.636718 13.710938.402344 16.347657 6.792969l18.390625 44.5625c2.636718 6.390625-.402344 13.710937-6.792969 16.347656zm0 0" fill="#8bd3f0"/><path d="m117.828125 439.9375c-25.613281-2.941406-48.902344-19.339844-59.429687-44.859375l-44.695313-108.277344c-15.445313-37.402343 2.359375-80.238281 39.765625-95.675781l14.324219-5.914062-5.558594 27.148437c-16.808594 6.9375-45.867187 40.527344-28.738281 82.03125 17.132812 41.503906 35.464844 85.90625 40.445312 97.96875 3.730469 9.042969 19.816406 39.554687 43.886719 47.578125zm0 0" fill="#48a5c2"/><path d="m98.484375 251.777344-17.070313 7.050781-19.179687-46.46875-8.765625-21.234375 17.066406-7.046875c6.390625-2.636719 13.707032.40625 16.34375 6.796875l8.765625 21.234375 9.65625 23.378906c2.597657 6.378907-.445312 13.660157-6.816406 16.289063zm0 0" fill="#d6d3c4"/><path d="m98.484375 251.777344-17.070313 7.050781-19.179687-46.46875 17.066406-7.042969c6.390625-2.640625 13.707031.402344 16.347657 6.792969l9.652343 23.378906c2.597657 6.378907-.445312 13.660157-6.816406 16.289063zm0 0" fill="#fbf2dc"/><path d="m171.140625 427.800781-17.066406 7.046875-27.945313-67.699218 17.070313-7.046876c6.390625-2.640624 13.707031.402344 16.34375 6.792969l18.390625 44.558594c2.636718 6.390625-.402344 13.710937-6.792969 16.347656zm0 0" fill="#d6d3c4"/><path d="m171.140625 427.796875-17.066406 7.050781-19.183594-46.46875 17.066406-7.042968c6.390625-2.640626 13.710938.402343 16.347657 6.792968l9.652343 23.378906c2.597657 6.378907-.445312 13.660157-6.816406 16.289063zm0 0" fill="#fbf2dc"/><path d="m83.492188 367.414062c-2.179688 1.503907-4.578126 2.761719-7.164063 3.726563l-11.5 4.28125c-17.042969 6.355469-36.023437-2.3125-42.375-19.355469l-4.285156-11.5c-6.351563-17.039062 2.316406-36.011718 19.355469-42.375l11.1875-4.160156.3125-.121094c17.042968-6.355468 36.023437 2.3125 42.375 19.355469l4.285156 11.5c5.390625 14.460937-.03125 30.296875-12.191406 38.648437zm0 0" fill="#e8b182"/><path d="m83.492188 367.414062-.324219.121094c-17.050781 6.355469-36.019531-2.3125-42.375-19.355468l-4.28125-11.5c-5.390625-14.460938.019531-30.304688 12.199219-38.648438l.3125-.121094c17.042968-6.355468 36.023437 2.3125 42.375 19.355469l4.285156 11.5c5.390625 14.460937-.03125 30.296875-12.191406 38.648437zm0 0" fill="#f9c991"/><path d="m430.414062 168.691406v335.136719h-65.382812v-317.589844c-109.617188 0-169.023438-59.40625-169.023438-59.40625-6.589843 17.246094-18.617187 31.382813-31.304687 41.410157-13.792969 10.910156-28.347656 16.980468-37.492187 16.980468v-22.328125l-30.703126 5.804688v-.007813c0-118.296875 86.628907-160.683594 165.847657-161.070312.367187-.007813.742187-.007813 1.105469-.007813 79.515624 0 166.953124 42.234375 166.953124 161.078125zm0 0" fill="#ffcf70"/><path d="m164.703125 168.222656v.019532c-13.792969 10.910156-28.347656 16.980468-37.492187 16.980468v-22.328125l-30.703126 5.804688v-.007813c0-118.296875 86.628907-160.683594 165.847657-161.070312-52.445313 1.28125-111.808594 92.648437-97.652344 160.601562zm0 0" fill="#ee9e04"/><path d="m263.460938 293.417969c15.535156 0 31.066406-5.910157 42.894531-17.738281 2.972656-2.972657 2.972656-7.789063 0-10.761719-2.976563-2.976563-7.792969-2.976563-10.765625 0-17.714844 17.710937-46.539063 17.710937-64.25 0-2.972656-2.976563-7.792969-2.976563-10.765625 0-2.972657 2.972656-2.972657 7.789062 0 10.761719 11.824219 11.828124 27.355469 17.738281 42.886719 17.738281zm0 0"/><path d="m204.105469 230.976562c4.203125 0 7.613281-3.410156 7.613281-7.613281v-23.34375c0-4.203125-3.410156-7.613281-7.613281-7.613281s-7.613281 3.410156-7.613281 7.613281v23.34375c0 4.203125 3.410156 7.613281 7.613281 7.613281zm0 0"/><path d="m322.824219 230.976562c4.203125 0 7.613281-3.410156 7.613281-7.613281v-23.34375c0-4.203125-3.410156-7.613281-7.613281-7.613281-4.207031 0-7.613281 3.410156-7.613281 7.613281v23.34375c0 4.203125 3.410156 7.613281 7.613281 7.613281zm0 0"/><path d="m422.433594 90.222656c-9.480469-20.769531-23.25-38.460937-40.925782-52.585937-30.367187-24.269531-72.292968-37.636719-118.046874-37.636719-52.902344 0-99.207032 17.296875-130.382813 48.707031-2.960937 2.984375-2.941406 7.804688.042969 10.765625 2.980468 2.960938 7.800781 2.941406 10.765625-.042968 38.175781-38.460938 91.304687-44.203126 119.574219-44.203126 77.03125 0 159.339843 40.3125 159.339843 153.472657v131.214843c0 4.203126 3.410157 7.613282 7.613281 7.613282 4.207032 0 7.613282-3.410156 7.613282-7.613282v-131.222656c0-29.410156-5.246094-55.8125-15.59375-78.46875zm0 0"/><path d="m430.414062 322.753906c-4.203124 0-7.613281 3.40625-7.613281 7.613282v165.847656h-50.160156v-309.976563c0-4.203125-3.40625-7.613281-7.609375-7.613281-54.777344 0-96.320312-15.519531-121.523438-28.539062-27.386718-14.148438-41.988281-28.503907-42.121093-28.640626-1.824219-1.824218-4.449219-2.601562-6.972657-2.058593-2.523437.539062-4.601562 2.320312-5.523437 4.730469-10.792969 28.285156-37.429687 47.214843-54.070313 52.191406v-12.316406c0-3.84375-2.867187-7.085938-6.683593-7.554688-2.800781-.34375-10.929688-.394531-11.007813-.394531-4.347656 0-8.613281.542969-12.71875 1.566406 1.472656-29.644531 8.929688-55.347656 22.253906-76.511719 2.242188-3.558594 1.171876-8.257812-2.386718-10.5-3.558594-2.238281-8.257813-1.171875-10.496094 2.386719-15.855469 25.1875-24.183594 55.890625-24.824219 91.296875-4.714843 3.019531-8.949219 6.816406-12.535156 11.28125-2.96875-.167969-5.964844.308594-8.796875 1.480469l-17.058594 7.042969c-19.972656 8.242187-35.535156 23.769531-43.828125 43.71875-8.292969 19.949218-8.320312 41.9375-.074219 61.902343l8.617188 20.867188c-1.179688 1.777343-2.230469 3.65625-3.136719 5.632812-4.5 9.855469-4.894531 20.867188-1.109375 31.019531l4.285156 11.5c2.265626 6.074219 5.878907 11.398438 10.519532 15.664063l15.828125 106.695313c2.613281 17.621093 18.019531 30.910156 35.835937 30.910156 9.679688 0 18.777344-3.765625 25.621094-10.609375l16.472656-16.472657v18.910157c0 4.203125 3.40625 7.613281 7.613282 7.613281h303.203124c4.203126 0 7.613282-3.40625 7.613282-7.609375v-173.460937c0-4.207032-3.40625-7.613282-7.613282-7.613282zm-231.691406-183.453125c7.417969 5.984375 19.867188 14.984375 37.175782 23.988281 25.621093 13.328126 67.105468 29.101563 121.519531 30.46875v130.730469c-18.5 19.757813-43.0625 33.402344-69.515625 38.496094-7.984375 1.539063-16.207032 2.316406-24.441406 2.316406-70.929688 0-128.636719-57.707031-128.636719-128.636719v-44.71875c19.863281-4.261718 48.796875-23.644531 63.898437-52.644531zm117.734375 231.101563c-6.039062 13.765625-27.855469 24.292968-52.996093 24.292968-25.125 0-46.9375-10.523437-52.980469-24.277343 16.40625 6.519531 34.28125 10.109375 52.980469 10.109375 9.199218 0 18.390624-.875 27.320312-2.59375 8.785156-1.691406 17.382812-4.230469 25.675781-7.53125zm-197.757812 61.96875c-23.746094-2.726563-44.160157-18.128906-53.269531-40.195313l-3.316407-8.023437c1.8125-.40625 3.605469-.9375 5.371094-1.59375l11.5-4.289063c4.820313-1.792969 9.160156-4.4375 12.878906-7.765625 7.921875 7.335938 19.480469 10.078125 30.101563 6.511719l21.996094 53.285156c-8.210938 2.320313-16.816407 3.042969-25.261719 2.070313zm-46.621094-142.472656-1.007813-2.4375c-1.519531-3.679688-1.511718-7.734376.015626-11.414063 1.53125-3.675781 4.398437-6.539063 8.082031-8.054687l9.535156-3.9375v35.523437c-3.265625-3.144531-7.074219-5.75-11.320313-7.691406-1.734374-.792969-3.507812-1.449219-5.304687-1.988281zm47.78125-44.675782c-.902344.066406-1.8125.109375-2.730469.109375-1.320312 0-2.628906-.074219-3.925781-.210937 1.0625-4.171875.78125-8.546875-.890625-12.589844l-6.8125-16.503906c1.21875-.785156 2.230469-1.925782 2.851562-3.359375 2.316407-5.324219 7.285157-6.523438 11.246094-6.542969v30.539062c0 2.875.09375 5.726563.261719 8.558594zm38.347656 179.6875-22.140625-53.632812 10.03125-4.144532c2.5-1.03125 5.378906.164063 6.410156 2.667969l18.390626 44.558594c.5 1.210937.5 2.546875-.003907 3.757813-.503906 1.207031-1.449219 2.152343-2.664062 2.652343zm-4.050781-72.375c-4.390625-1.421875-9.28125-1.367187-13.871094.527344l-22.214844 9.171875c-6.007812 2.484375-12.8125.707031-16.910156-3.988281.183594-.371094.371094-.742188.542969-1.121094 3.996094-8.746094 4.75-18.40625 2.222656-27.5625v-70.699219c4.28125 1.117188 8.699219 1.695313 13.203125 1.695313 1.484375 0 2.960938-.078125 4.429688-.203125 5.269531 31.65625 20.90625 59.851562 43.296875 80.960937-3.769531 3.546875-7.34375 7.296875-10.699219 11.21875zm-34.558594-181.238281v13.925781.039063 5.675781c-6.996094.066406-15.101562 2.140625-20.859375 8.714844l-4.820312-11.675782c-.832031-2.023437-1.980469-3.851562-3.367188-5.464843 6.910157-7.132813 16.429688-11.242188 26.578125-11.242188.652344 0 1.523438.007813 2.46875.027344zm-46.160156 19.816406c1.210938-.5 2.546875-.496093 3.753906.007813 1.210938.503906 2.15625 1.449218 2.65625 2.660156l18.390625 44.5625c.5 1.207031.5 2.539062-.003906 3.746094-.503906 1.210937-1.445313 2.152344-2.65625 2.652344l-10.03125 4.144531-22.140625-53.628907zm-52.640625 42.535157c5.746094-13.824219 15.804687-25.019532 28.710937-32.167969l21.992188 53.285156c-6.542969 3.222656-11.644531 8.636719-14.472656 15.433594-2.445313 5.886719-2.953125 12.246093-1.542969 18.332031-3.078125.390625-6.136719 1.132812-9.121094 2.242188l-11.5 4.289062c-2.796875 1.042969-5.429687 2.378906-7.882812 3.960938l-6.242188-15.125c-6.695312-16.207032-6.671875-34.054688.058594-50.25zm19.386719 75.679687 11.5-4.289063c2.882812-1.074218 5.875-1.609374 8.859375-1.609374 3.582031 0 7.15625.773437 10.511719 2.304687 6.15625 2.8125 10.847656 7.851563 13.210937 14.191406l4.285156 11.496094c2.363281 6.339844 2.117188 13.222656-.695312 19.375s-7.851563 10.84375-14.1875 13.207031l-11.5 4.289063c-6.339844 2.363281-13.21875 2.113281-19.375-.695313-6.152344-2.8125-10.84375-7.851562-13.207031-14.191406l-4.285157-11.496094c-4.878906-13.085937 1.796875-27.703125 14.882813-32.582031zm52.175781 181.292969c-3.96875 3.96875-9.242187 6.152344-14.855469 6.152344-10.328125 0-19.261718-7.703126-20.777344-17.921876l-14.117187-95.171874c1.035156.289062 2.085937.519531 3.136719.722656l5.609375 13.585937c11.222656 27.179688 36.359375 46.148438 65.605469 49.507813.875.101562 1.753906.183594 2.636718.253906v15.632812zm42.464844-43.097656c7.578125-.828126 15.050781-2.707032 22.15625-5.636719l17.058593-7.042969c4.972657-2.054688 8.847657-5.917969 10.914063-10.882812 2.066406-4.964844 2.074219-10.4375.019531-15.410157l-18.390625-44.558593c-.234375-.570313-.5-1.117188-.78125-1.652344 3.347657-3.90625 6.941407-7.621094 10.75-11.113282 5.398438 4.105469 11.09375 7.835938 17.046875 11.15625 0 .128907-.007812.253907-.007812.382813 0 26.441406 30.691406 47.15625 69.871094 47.15625 39.183593 0 69.882812-20.714844 69.882812-47.15625 0-.128906-.007812-.257813-.011719-.386719 5.9375-3.304687 11.644531-7.027344 17.070313-11.136718 1.367187 1.253906 2.714844 2.539062 4.027344 3.855468 1.023437 1.019532 2.015624 2.058594 2.988281 3.101563v138.015625h-222.597657v-48.691406zm0 0"/></svg>